HIERARCHY
ROOT hip
{
	OFFSET 0.000000 0.000000 0.000000 
	CHANNELS 6 Xposition Yposition Zposition Xrotation Zrotation Yrotation
	JOINT abdomen
	{
		OFFSET 0.000000 3.402643 0.000000 
		CHANNELS 3 Xrotation Zrotation Yrotation
		JOINT chest
		{
			OFFSET 0.000000 8.438565 -0.680529 
			CHANNELS 3 Xrotation Zrotation Yrotation
			JOINT neck
			{
				OFFSET 0.000000 10.207942 -0.272212 
				CHANNELS 3 Xrotation Zrotation Yrotation
				JOINT head
				{
					OFFSET 0.000000 3.130431 0.000000 
					CHANNELS 3 Xrotation Zrotation Yrotation
					End Site
					{
						OFFSET 0.000000 3.130435 0.000000 
					}
				}
			}
			JOINT lCollar
			{
				OFFSET 3.470700 6.669187 -0.816635 
				CHANNELS 3 Yrotation Zrotation Xrotation
				JOINT lShldr
				{
					OFFSET 3.198488 0.000000 0.000000 
					CHANNELS 3 Zrotation Yrotation Xrotation
					JOINT lForeArm
					{
						OFFSET 10.139888 0.000000 0.000000 
						CHANNELS 3 Yrotation Zrotation Xrotation
						JOINT lHand
						{
							OFFSET 8.370511 0.000000 0.000000 
							CHANNELS 3 Zrotation Yrotation Xrotation
							End Site
							{
								OFFSET 4.083176 0.000000 0.000000 
							}
						}
					}
				}
			}
			JOINT rCollar
			{
				OFFSET -3.470700 6.669187 -0.816635 
				CHANNELS 3 Yrotation Zrotation Xrotation
				JOINT rShldr
				{
					OFFSET -3.198488 0.000000 0.000000 
					CHANNELS 3 Zrotation Yrotation Xrotation
					JOINT rForeArm
					{
						OFFSET -10.139888 0.000000 0.000000 
						CHANNELS 3 Yrotation Zrotation Xrotation
						JOINT rHand
						{
							OFFSET -8.370511 0.000000 0.000000 
							CHANNELS 3 Zrotation Yrotation Xrotation
							End Site
							{
								OFFSET -4.083176 0.000000 0.000000 
							}
						}
					}
				}
			}
		}
	}
	JOINT lThigh
	{
		OFFSET 5.308129 -1.633274 1.361059 
		CHANNELS 3 Xrotation Zrotation Yrotation
		JOINT lShin
		{
			OFFSET -2.041588 -20.007561 0.000000 
			CHANNELS 3 Xrotation Zrotation Yrotation
			JOINT lFoot
			{
				OFFSET 0.000000 -19.190928 -1.224953 
				CHANNELS 3 Xrotation Yrotation Zrotation
				End Site
				{
					OFFSET 0.000000 -2.449906 4.627600 
				}
			}
		}
	}
	JOINT rThigh
	{
		OFFSET -5.308129 -1.633274 1.361059 
		CHANNELS 3 Xrotation Zrotation Yrotation
		JOINT rShin
		{
			OFFSET 2.041588 -20.007561 0.000000 
			CHANNELS 3 Xrotation Zrotation Yrotation
			JOINT rFoot
			{
				OFFSET 0.000000 -19.190928 -1.224953 
				CHANNELS 3 Xrotation Yrotation Zrotation
				End Site
				{
					OFFSET 0.000000 -2.449906 4.627600 
				}
			}
		}
	}
}
MOTION
Frames: 10
Frame Time: 0.016667
-0.903681 46.209858 -1.396259 2.943431 -3.410422 -162.566132 3.413285 -15.307383 7.958668 0.000000 0.000000 0.000000 6.201428 -24.103476 -26.753115 0.000000 0.000000 0.000000 0.000000 0.000000 0.000000 -62.137333 -0.264561 55.962639 -15.065619 13.591848 -9.830712 3.672913 6.265214 -16.765484 0.000000 0.000000 0.000000 76.293434 -15.375639 67.153984 24.424404 -13.958889 9.584984 5.196226 5.744040 -23.782551 -14.481521 4.862763 10.976873 36.755169 10.700328 -4.534285 -18.662300 -14.423226 -10.043379 1.118787 -20.353512 -27.770912 7.014713 -5.761831 3.480265 -16.858904 -0.178255 13.697636 
-2.316388 46.197987 -0.892760 2.324809 -3.381072 -151.998306 3.330391 -14.247731 8.079894 0.000000 0.000000 0.000000 4.915113 -22.682055 -25.162745 0.000000 0.000000 0.000000 0.000000 0.000000 0.000000 -62.153259 -0.899201 57.918938 -15.034797 12.998546 -9.737187 3.193576 6.089817 -17.268902 0.000000 0.000000 0.000000 75.708054 -14.233004 67.795242 23.136286 -13.722248 8.261187 4.872009 7.316560 -24.523661 -14.246762 4.540558 10.716673 34.631599 9.970099 -4.859945 -17.202045 -13.442377 -9.332518 -0.226860 -19.321848 -25.823023 7.605345 -5.492373 2.957892 -16.403959 0.188024 12.169592 
-3.915071 46.160976 0.986300 1.100055 -3.202167 -133.137238 3.417332 -12.312671 8.057485 0.000000 0.000000 0.000000 3.183725 -20.430119 -22.735727 0.000000 0.000000 0.000000 0.000000 0.000000 0.000000 -62.260181 -2.047711 61.554478 -15.013522 11.865494 -9.705112 2.238379 5.775539 -18.120232 0.000000 0.000000 0.000000 74.860840 -12.324498 68.478172 21.168873 -13.083092 6.117597 4.184947 9.976814 -25.883665 -13.429537 3.726256 10.208454 31.034943 8.618072 -5.318413 -15.141705 -11.647099 -8.435191 -2.413764 -17.385900 -22.426506 9.137498 -5.237255 1.813628 -15.772722 0.436526 9.911183 
-5.513658 46.123962 2.865246 0.009518 -2.629218 -114.300369 3.501513 -10.387372 8.042035 0.000000 0.000000 0.000000 1.568432 -18.111940 -20.409382 0.000000 0.000000 0.000000 0.000000 0.000000 0.000000 -62.448071 -3.192079 65.197212 -14.987612 10.744492 -9.687913 1.302571 5.439032 -18.964039 0.000000 0.000000 0.000000 74.044868 -10.421103 69.133087 19.226263 -12.371202 4.014993 3.428980 12.621735 -27.286486 -12.616800 2.929912 9.689032 27.470282 7.221525 -5.700126 -13.112287 -9.819675 -7.599250 -4.443523 -15.328091 -19.147415 10.661149 -4.944034 0.679949 -15.120382 0.662208 7.634563 
-5.460676 46.268597 5.144950 -1.333963 -1.660717 -92.965614 3.594687 -7.923518 7.877203 0.000000 0.000000 0.000000 0.182861 -15.762512 -17.810713 0.000000 0.000000 0.000000 0.000000 0.000000 0.000000 -62.819782 -4.308882 69.528526 -14.956757 9.526387 -9.681176 0.175242 5.101006 -19.884089 0.000000 0.000000 0.000000 72.960991 -8.584999 69.460266 17.075716 -11.649890 1.777173 2.233281 15.648806 -29.313919 -11.475740 1.696412 8.970294 23.717339 5.706908 -6.265775 -10.702803 -7.733325 -6.401408 -6.150834 -13.321703 -15.730800 12.434911 -4.489911 -0.343513 -14.615992 0.956082 4.911251 
-5.407619 46.413235 7.424474 -2.232042 -0.276256 -71.681725 3.673914 -5.467862 7.720156 0.000000 0.000000 0.000000 -1.067405 -13.364908 -15.307774 0.000000 0.000000 0.000000 0.000000 0.000000 0.000000 -63.278706 -5.404475 73.876717 -14.934041 8.312331 -9.687688 -0.944153 4.739363 -20.796217 0.000000 0.000000 0.000000 71.887581 -6.725926 69.748138 14.961785 -10.841109 -0.411231 0.898741 18.636595 -31.443640 -10.331643 0.488515 8.236543 19.994272 4.135179 -6.726273 -8.354733 -5.601318 -5.290124 -7.742025 -11.244827 -12.388976 14.237826 -4.023266 -1.340046 -14.077240 1.221320 2.199956 
-4.065638 46.776867 8.290361 -3.082712 1.172890 -53.736927 3.951338 -3.090196 7.276060 0.000000 0.000000 0.000000 -1.445918 -12.137699 -13.280778 0.000000 0.000000 0.000000 0.000000 0.000000 0.000000 -63.718376 -6.293143 77.571594 -15.035521 7.368126 -9.565327 -1.930720 4.277612 -21.701485 0.000000 0.000000 0.000000 70.743690 -5.380402 69.629898 13.252902 -10.164353 -2.148644 -0.358096 21.244177 -33.693428 -9.042795 -0.830024 7.030095 17.030769 2.633673 -6.840513 -6.479860 -3.634278 -4.467501 -9.051889 -9.578781 -9.616764 17.293779 -3.886451 -2.522367 -14.584558 0.909337 0.572571 
-2.723690 47.140469 9.156149 -3.442736 2.813252 -35.791702 4.210855 -0.717519 6.836377 0.000000 0.000000 0.000000 -1.768744 -10.904518 -11.260818 0.000000 0.000000 0.000000 0.000000 0.000000 0.000000 -64.223526 -7.143992 81.288254 -15.131412 6.433179 -9.445454 -2.910214 3.805344 -22.597601 0.000000 0.000000 0.000000 69.595192 -4.032058 69.488678 11.563077 -9.432287 -3.849913 -1.746780 23.789700 -36.041328 -7.720694 -2.118718 5.800809 14.060751 1.122667 -6.914931 -4.634185 -1.627185 -3.716025 -10.277813 -7.836702 -6.882084 20.351223 -3.697636 -3.726588 -15.082576 0.651541 -1.067611 
-1.782964 47.292217 8.764476 -4.482585 4.364813 -24.244726 4.481140 1.048300 6.309678 0.000000 0.000000 0.000000 -0.802394 -11.418653 -9.765759 0.000000 0.000000 0.000000 0.000000 0.000000 0.000000 -64.779869 -7.388123 83.989021 -15.216331 5.929271 -9.595861 -3.591059 3.699574 -23.619812 0.000000 0.000000 0.000000 68.605659 -3.780601 68.828568 10.444388 -8.880448 -4.828509 -2.848536 25.376881 -37.647499 -6.317207 -3.866503 4.587448 12.688383 0.250710 -6.595571 -3.659401 -0.650448 -3.188475 -10.769642 -7.439968 -5.151238 24.130266 -3.730382 -4.732465 -16.404766 0.536183 -1.802426 
-0.842340 47.443966 8.372748 -5.196293 6.078970 -12.709268 4.738121 2.807851 5.798391 0.000000 0.000000 0.000000 0.163842 -11.957902 -8.276972 0.000000 0.000000 0.000000 0.000000 0.000000 0.000000 -65.346199 -7.595465 86.696289 -15.295280 5.421649 -9.738126 -4.272827 3.580081 -24.643085 0.000000 0.000000 0.000000 67.621483 -3.531484 68.168381 9.329026 -8.308038 -5.789478 -4.013606 26.937101 -39.305393 -4.887448 -5.581246 3.339777 11.321102 -0.607719 -6.254550 -2.698016 0.303694 -2.700918 -11.244303 -7.037086 -3.404499 27.905968 -3.700971 -5.764148 -17.708099 0.475711 -2.537860 
